<svg width="50" height="50" viewBox="0 0 50 50" fill="none" xmlns="http://www.w3.org/2000/svg">
<g clip-path="url(#clip0_1_59)">
<g clip-path="url(#clip1_1_59)">
<g clip-path="url(#clip2_1_59)">
<g clip-path="url(#clip3_1_59)">
<path d="M20.1553 20.0114C20.1553 19.8187 20.0316 19.6625 19.879 19.6625C19.7263 19.6625 19.6026 19.8187 19.6026 20.0114V29.9906C19.6026 30.1833 19.7263 30.3395 19.879 30.3395C20.0316 30.3395 20.1553 30.1833 20.1553 29.9906V20.0114Z" fill="#0D0D0D"/>
<g clip-path="url(#clip4_1_59)">
<g clip-path="url(#clip5_1_59)">
<g clip-path="url(#clip6_1_59)">
<g clip-path="url(#clip7_1_59)">
<path d="M24.7312 25.7088H23.1672V21.1076H21.6031V19.7982H26.2952V21.1076H24.7312V25.7088ZM31.0783 25.7088H27.1682V19.7982H30.9874V21.1076H28.7322V22.0351H30.66V23.3446H28.7322V24.3994H31.0783V25.7088ZM34.6429 25.8179C33.8124 25.8179 33.1952 25.5767 32.7915 25.0941C32.3889 24.6128 32.1877 23.8659 32.1877 22.8535V19.7982H33.7517V23.0354C33.7517 23.5628 33.8227 23.9338 33.9645 24.1484C34.1064 24.3642 34.3325 24.4721 34.6429 24.4721C34.952 24.4721 35.1806 24.3642 35.3285 24.1484C35.4776 23.9338 35.5522 23.5628 35.5522 23.0354V19.7982H37.0617V22.8535C37.0617 23.8659 36.8647 24.6128 36.4706 25.0941C36.0766 25.5767 35.4673 25.8179 34.6429 25.8179ZM40.1152 25.8179C39.7393 25.8179 39.3532 25.7494 38.9567 25.6124C38.559 25.4766 38.1996 25.2632 37.8783 24.9723L38.7694 23.8992C38.9816 24.069 39.2107 24.2066 39.4569 24.3121C39.7018 24.4188 39.9333 24.4721 40.1516 24.4721C40.388 24.4721 40.5596 24.4358 40.6663 24.363C40.7717 24.2903 40.8245 24.1872 40.8245 24.0538C40.8245 23.9811 40.8063 23.9205 40.7699 23.872C40.7335 23.8235 40.6808 23.778 40.6117 23.7356C40.5414 23.6931 40.4577 23.6519 40.3607 23.6119C40.2637 23.5731 40.1516 23.5295 40.0243 23.481L39.2877 23.1718C39.1301 23.1112 38.9785 23.0305 38.8331 22.9299C38.6876 22.8305 38.5603 22.7123 38.4511 22.5753C38.342 22.4395 38.2559 22.2837 38.1929 22.1079C38.1286 21.9321 38.0965 21.7381 38.0965 21.5259C38.0965 21.2713 38.1511 21.033 38.2602 20.8112C38.3693 20.5905 38.5208 20.3965 38.7148 20.2292C38.9088 20.0631 39.141 19.9315 39.4114 19.8346C39.6805 19.7376 39.9758 19.6891 40.2971 19.6891C40.6365 19.6891 40.9809 19.7527 41.3301 19.88C41.678 20.0073 41.9884 20.2074 42.2612 20.4802L41.4792 21.4622C41.2791 21.3228 41.087 21.2167 40.9027 21.144C40.7172 21.0712 40.5153 21.0349 40.2971 21.0349C40.1031 21.0349 39.9515 21.0682 39.8424 21.1349C39.7333 21.2016 39.6787 21.3016 39.6787 21.435C39.6787 21.5744 39.7563 21.6817 39.9115 21.7569C40.0655 21.8333 40.2789 21.923 40.5517 22.026L41.27 22.3079C41.6398 22.4534 41.9248 22.6565 42.1248 22.9172C42.3249 23.1778 42.4249 23.5143 42.4249 23.9265C42.4249 24.1751 42.3734 24.4145 42.2703 24.6449C42.1673 24.8753 42.0175 25.0765 41.8211 25.2487C41.6235 25.4221 41.3822 25.5603 41.0973 25.6633C40.8124 25.7664 40.485 25.8179 40.1152 25.8179Z" fill="#0D0D0D"/>
</g>
</g>
<g clip-path="url(#clip8_1_59)">
<g clip-path="url(#clip9_1_59)">
<path d="M23.1828 28.4144C23.1806 28.7801 23.0794 29.0631 22.8793 29.2632C22.6787 29.4638 22.4021 29.5641 22.0496 29.5641H21.6029V27.2648H22.0496C22.4021 27.2648 22.6787 27.3649 22.8793 27.565C23.0794 27.7656 23.1806 28.0487 23.1828 28.4144ZM21.9116 29.275H22.089C22.3321 29.275 22.5188 29.1944 22.6494 29.0333C22.7794 28.8725 22.8467 28.6663 22.851 28.4144C22.8467 28.1626 22.7794 27.9561 22.6494 27.795C22.5188 27.6342 22.3321 27.5539 22.089 27.5539H21.9116V29.275ZM24.3488 27.9546C24.7211 27.9699 24.9072 28.1243 24.9072 28.4177C24.9072 28.7834 24.6675 28.9663 24.1879 28.9663H24.0532V28.7133H24.2109C24.3576 28.7133 24.4594 28.6908 24.5164 28.6457C24.5733 28.601 24.6018 28.5261 24.6018 28.421C24.6018 28.3531 24.5766 28.3021 24.5262 28.2679C24.4758 28.2342 24.4113 28.2174 24.3324 28.2174C24.1769 28.2174 24.0548 28.2721 23.9658 28.3816C23.8774 28.4911 23.8331 28.6225 23.8331 28.7758C23.8331 28.9378 23.8807 29.0692 23.9757 29.1699C24.0712 29.2706 24.1956 29.321 24.3488 29.321C24.4868 29.321 24.5996 29.2871 24.6872 29.2192L24.8842 29.413C24.7331 29.5356 24.5547 29.5969 24.3488 29.5969C24.0992 29.5969 23.8999 29.5236 23.751 29.3768C23.6021 29.2301 23.5277 29.0407 23.5277 28.8086C23.5277 28.5502 23.601 28.3411 23.7477 28.1812C23.8945 28.0214 24.0948 27.9458 24.3488 27.9546ZM25.7475 27.9874H26.3295V28.2633H25.7475C25.6839 28.2633 25.6292 28.2754 25.5832 28.2995C25.5377 28.3236 25.5149 28.3575 25.5149 28.4013C25.5149 28.4276 25.5204 28.451 25.5313 28.4716C25.5423 28.4926 25.5548 28.5097 25.5688 28.5228C25.5832 28.536 25.6051 28.5495 25.6345 28.5636C25.6642 28.578 25.6872 28.5879 25.7034 28.5931C25.7201 28.5988 25.7895 28.6214 25.9117 28.6608C26.0348 28.7002 26.1258 28.7331 26.185 28.7593C26.2437 28.7856 26.289 28.8211 26.321 28.8658C26.3529 28.9109 26.3733 28.9547 26.3821 28.9971C26.3908 29.0401 26.3952 29.0823 26.3952 29.1239C26.3952 29.4174 26.1937 29.5641 25.7908 29.5641H25.2219V29.2882H25.7908C25.9967 29.2882 26.0996 29.2334 26.0996 29.1239C26.0996 29.0714 26.0694 29.0276 26.0089 28.9925C25.9489 28.9575 25.8756 28.9279 25.7888 28.9039C25.7026 28.8798 25.6161 28.8517 25.5294 28.8198C25.4431 28.7882 25.3697 28.7368 25.3093 28.6654C25.2493 28.5944 25.2193 28.5064 25.2193 28.4013C25.2193 28.2677 25.2707 28.1652 25.3737 28.0939C25.4766 28.0229 25.6012 27.9874 25.7475 27.9874ZM27.15 27.9874V29.5641H26.861V28.2633H26.5916L26.723 27.9874H27.15ZM26.8478 27.659C26.8194 27.6217 26.8051 27.5812 26.8051 27.5374C26.8051 27.4936 26.8194 27.4536 26.8478 27.4172C26.8763 27.3813 26.9201 27.3633 26.9792 27.3633C27.0383 27.3633 27.0821 27.3813 27.1106 27.4172C27.1391 27.4536 27.1533 27.4936 27.1533 27.5374C27.1533 27.5812 27.1391 27.6211 27.1106 27.657C27.0821 27.6933 27.0383 27.7115 26.9792 27.7115C26.9201 27.7115 26.8763 27.694 26.8478 27.659ZM28.3226 29.5641C28.108 29.5641 27.9241 29.4918 27.7708 29.3473C27.6175 29.2028 27.5409 29.0177 27.5409 28.7922C27.5409 28.5644 27.6182 28.3733 27.7728 28.2187C27.9269 28.0645 28.1179 27.9874 28.3456 27.9874H29.1175V29.5181C29.1175 29.6166 29.105 29.7053 29.0801 29.7841C29.0547 29.863 29.019 29.9298 28.973 29.9845C28.927 30.0393 28.8854 30.082 28.8482 30.1126C28.811 30.1433 28.7661 30.175 28.7135 30.2079C28.5777 30.2779 28.4124 30.313 28.2175 30.313H27.8496V30.0371H28.188C28.3807 30.0371 28.5175 30.013 28.5985 29.9648C28.7475 29.8816 28.8219 29.7436 28.8219 29.5509V28.2633H28.3456C28.1902 28.2633 28.0664 28.3115 27.9745 28.4079C27.8825 28.5042 27.8365 28.6323 27.8365 28.7922C27.8365 28.9455 27.8842 29.0663 27.9797 29.1548C28.0748 29.2437 28.1891 29.2882 28.3226 29.2882C28.4672 29.2882 28.5942 29.2487 28.7037 29.1699V29.4655C28.5854 29.5312 28.4584 29.5641 28.3226 29.5641ZM29.5445 29.5641V27.9874H30.1128C30.3558 27.9874 30.5299 28.0236 30.635 28.0958C30.7292 28.1593 30.7888 28.2353 30.8137 28.3238C30.8391 28.4127 30.8518 28.5294 30.8518 28.6739V29.5641H30.5628V28.6772C30.5628 28.6378 30.5617 28.6043 30.5595 28.5767C30.5573 28.5495 30.5496 28.5145 30.5365 28.4716C30.5234 28.4291 30.5047 28.3941 30.4807 28.3665C30.4566 28.3393 30.4215 28.3152 30.3756 28.2942C30.3296 28.2736 30.2737 28.2633 30.208 28.2633H29.8336V29.5641H29.5445ZM32.0179 27.9546C32.3901 27.9699 32.5763 28.1243 32.5763 28.4177C32.5763 28.7834 32.3365 28.9663 31.8569 28.9663H31.7223V28.7133H31.8799C32.0266 28.7133 32.1285 28.6908 32.1854 28.6457C32.2423 28.601 32.2708 28.5261 32.2708 28.421C32.2708 28.3531 32.2456 28.3021 32.1953 28.2679C32.1449 28.2342 32.0803 28.2174 32.0015 28.2174C31.846 28.2174 31.7238 28.2721 31.6349 28.3816C31.5464 28.4911 31.5022 28.6225 31.5022 28.7758C31.5022 28.9378 31.5497 29.0692 31.6447 29.1699C31.7402 29.2706 31.8646 29.321 32.0179 29.321C32.1558 29.321 32.2686 29.2871 32.3562 29.2192L32.5533 29.413C32.4022 29.5356 32.2237 29.5969 32.0179 29.5969C31.7683 29.5969 31.569 29.5236 31.4201 29.3768C31.2712 29.2301 31.1967 29.0407 31.1967 28.8086C31.1967 28.5502 31.2701 28.3411 31.4168 28.1812C31.5635 28.0214 31.7639 27.9458 32.0179 27.9546ZM33.1439 29.5641H32.8548V28.6674C32.8548 28.4155 32.9019 28.2414 32.9961 28.1451C33.042 28.0969 33.0979 28.0608 33.1636 28.0367C33.2293 28.0126 33.2869 27.9984 33.3364 27.994C33.3854 27.9896 33.4526 27.9874 33.538 27.9874H33.8271V28.2633H33.4789C33.4351 28.2633 33.4012 28.2644 33.3771 28.2666C33.353 28.2688 33.3245 28.2765 33.2917 28.2896C33.2588 28.3028 33.2304 28.3236 33.2063 28.352C33.1647 28.4046 33.1439 28.5097 33.1439 28.6674V29.5641Z" fill="#0D0D0D"/>
</g>
</g>
</g>
</g>
<g clip-path="url(#clip10_1_59)">
<g clip-path="url(#clip11_1_59)">
<path d="M10.125 20.5728C11.8586 20.7689 12.5974 21.9547 12.8048 22.5747C12.9393 22.9766 12.9898 23.2149 12.9898 23.7404C12.9898 23.8431 12.9953 24.0013 12.8573 24.0189C12.7605 24.0313 12.7054 23.9549 12.6973 23.8703C12.661 23.49 12.5516 23.0447 12.1936 22.6324C11.9104 22.3064 11.2545 21.6518 10.1007 21.75C9.76528 21.7786 9.46578 21.5152 9.4561 21.1764C9.4458 20.8161 9.76842 20.5325 10.125 20.5728Z" fill="#E77917"/>
<path d="M15.5626 29.429C13.829 29.2328 13.0903 28.0471 12.8828 27.427C12.7483 27.0251 12.6978 26.7868 12.6978 26.2613C12.6978 26.1586 12.6923 26.0004 12.8303 25.9828C12.9271 25.9704 12.9822 26.0468 12.9903 26.1314C13.0266 26.5117 13.1359 26.957 13.494 27.3693C13.7772 27.6953 14.4331 28.3499 15.5869 28.2517C15.9223 28.2231 16.2218 28.4865 16.2315 28.8253C16.2418 29.1857 15.9192 29.4693 15.5626 29.429Z" fill="#E77917"/>
<path d="M8.41571 27.7198C8.61177 25.9862 9.79758 25.2474 10.4176 25.0401C10.8195 24.9056 11.0578 24.8551 11.5834 24.8551C11.6861 24.8551 11.8443 24.8494 11.8619 24.9875C11.8742 25.0843 11.7979 25.1395 11.7134 25.1475C11.333 25.1837 10.8877 25.2932 10.4755 25.6512C10.1495 25.9345 9.49494 26.5905 9.5931 27.7441C9.62175 28.0795 9.35832 28.379 9.01949 28.3887C8.65903 28.3989 8.37537 28.0764 8.41571 27.7198Z" fill="#E77917"/>
<path d="M17.2719 22.2821C17.0758 24.0158 15.89 24.7545 15.27 24.9619C14.8681 25.0964 14.6298 25.1469 14.1042 25.1469C14.0015 25.1469 13.8433 25.1525 13.8257 25.0144C13.8134 24.9176 13.8897 24.8625 13.9742 24.8544C14.3546 24.8182 14.7998 24.7088 15.2121 24.3507C15.5381 24.0674 16.1926 23.4115 16.0945 22.2578C16.0658 21.9224 16.3293 21.6229 16.6681 21.6132C17.0286 21.603 17.3122 21.9255 17.2719 22.2821Z" fill="#E77917"/>
<path d="M8.2752 22.5255C9.87462 21.8285 11.1072 22.4861 11.597 22.9193C11.9144 23.2001 12.0772 23.3813 12.34 23.8364C12.3914 23.9254 12.4754 24.0595 12.3645 24.1438C12.287 24.2029 12.2009 24.1644 12.1517 24.0952C11.9302 23.7839 11.6127 23.4531 11.0965 23.2751C10.6882 23.1343 9.79281 22.8954 8.8429 23.5574C8.56665 23.7498 8.17566 23.6714 7.99782 23.3828C7.80867 23.0758 7.94629 22.6688 8.2752 22.5255Z" fill="#E77917"/>
<path d="M17.4124 27.4763C15.813 28.1733 14.5804 27.5157 14.0906 27.0825C13.7731 26.8017 13.6104 26.6205 13.3476 26.1654C13.2962 26.0764 13.2122 25.9423 13.323 25.858C13.4006 25.7989 13.4866 25.8374 13.5359 25.9066C13.7574 26.218 14.0749 26.5487 14.5911 26.7267C14.9994 26.8675 15.8948 27.1064 16.8447 26.4446C17.1209 26.252 17.5119 26.3304 17.6898 26.619C17.8789 26.926 17.7413 27.333 17.4124 27.4763Z" fill="#E77917"/>
<path d="M10.3683 29.5696C9.67127 27.9702 10.3288 26.7376 10.7621 26.2479C11.043 25.9305 11.2241 25.7676 11.6793 25.5048C11.7683 25.4534 11.9024 25.3696 11.9866 25.4803C12.0456 25.5579 12.0072 25.644 11.9379 25.6931C11.6266 25.9148 11.2958 26.2322 11.1179 26.7483C10.9771 27.1565 10.7382 28.0519 11.4001 29.0019C11.5926 29.2782 11.5143 29.6693 11.2256 29.8471C10.9187 30.036 10.5117 29.8985 10.3683 29.5696Z" fill="#E77917"/>
<path d="M15.3192 20.4323C16.0162 22.0317 15.3586 23.2643 14.9254 23.7541C14.6446 24.0716 14.4635 24.2343 14.0083 24.4972C13.9193 24.5485 13.7852 24.6325 13.7009 24.5217C13.6418 24.4441 13.6804 24.358 13.7496 24.3088C14.061 24.0873 14.3918 23.7699 14.5697 23.2536C14.7105 22.8453 14.9494 21.95 14.2874 20.9999C14.0949 20.7236 14.1733 20.3326 14.4619 20.1548C14.7689 19.9659 15.1759 20.1034 15.3192 20.4323Z" fill="#E77917"/>
<path d="M7.64943 25.1415C8.68605 23.7381 10.0823 23.6912 10.7231 23.8216C11.1385 23.906 11.37 23.9814 11.8252 24.2442C11.9142 24.2955 12.0539 24.3698 12.0002 24.4982C11.9626 24.5882 11.8688 24.5979 11.7915 24.5626C11.444 24.4039 11.0036 24.276 10.4677 24.38C10.0437 24.4622 9.14881 24.703 8.65715 25.7513C8.51412 26.0561 8.13632 26.1836 7.83795 26.0226C7.5206 25.8513 7.4364 25.4301 7.64943 25.1415Z" fill="#E77917"/>
<path d="M18.038 24.8605C17.0014 26.2637 15.6051 26.3106 14.9645 26.1802C14.5491 26.0958 14.3176 26.0204 13.8624 25.7576C13.7734 25.7063 13.6336 25.632 13.6873 25.5036C13.725 25.4136 13.8188 25.4039 13.8959 25.4392C14.2436 25.5981 14.6838 25.7258 15.2199 25.6218C15.6438 25.5396 16.5387 25.299 17.0304 24.2507C17.1735 23.9458 17.5513 23.8182 17.8495 23.9792C18.1669 24.1505 18.2512 24.5718 18.038 24.8605Z" fill="#E77917"/>
<path d="M12.9844 30.1953C11.581 29.1587 11.5341 27.7625 11.6645 27.1217C11.749 26.7064 11.8243 26.4748 12.0873 26.0195C12.1387 25.9305 12.2129 25.7909 12.3411 25.8446C12.4311 25.8823 12.4408 25.9759 12.4055 26.0532C12.2467 26.4007 12.1189 26.8411 12.2229 27.377C12.3051 27.801 12.5459 28.6958 13.5942 29.1876C13.899 29.3306 14.0265 29.7084 13.8655 30.0068C13.6941 30.3241 13.2729 30.4084 12.9844 30.1953Z" fill="#E77917"/>
<path d="M12.7032 19.8068C14.1066 20.8433 14.1533 22.2395 14.023 22.8803C13.9386 23.2957 13.8633 23.5272 13.6005 23.9826C13.5491 24.0714 13.4748 24.2112 13.3465 24.1575C13.2565 24.1198 13.2469 24.0261 13.2822 23.9488C13.441 23.6013 13.5688 23.161 13.4649 22.625C13.3825 22.201 13.1419 21.3063 12.0935 20.8144C11.7886 20.6715 11.6612 20.2936 11.8222 19.9953C11.9934 19.6778 12.4145 19.5936 12.7032 19.8068Z" fill="#E77917"/>
</g>
</g>
</g>
</g>
</g>
</g>
<defs>
<clipPath id="clip0_1_59">
<rect width="50" height="50" fill="white"/>
</clipPath>
<clipPath id="clip1_1_59">
<rect width="35" height="10.675" fill="white" transform="translate(7.47879 19.6635)"/>
</clipPath>
<clipPath id="clip2_1_59">
<rect width="34.894" height="10.677" fill="white" transform="translate(7.53178 19.6625)"/>
</clipPath>
<clipPath id="clip3_1_59">
<rect width="34.894" height="10.677" fill="white" transform="translate(7.53178 19.6625)"/>
</clipPath>
<clipPath id="clip4_1_59">
<rect width="20.8236" height="10.6239" fill="white" transform="translate(21.6022 19.6891)"/>
</clipPath>
<clipPath id="clip5_1_59">
<rect width="20.8236" height="10.6239" fill="white" transform="translate(21.6022 19.6891)"/>
</clipPath>
<clipPath id="clip6_1_59">
<rect width="20.8236" height="6.12887" fill="white" transform="translate(21.6022 19.6891)"/>
</clipPath>
<clipPath id="clip7_1_59">
<rect width="20.8236" height="6.12887" fill="white" transform="translate(21.6022 19.6891)"/>
</clipPath>
<clipPath id="clip8_1_59">
<rect width="12.2255" height="3.04817" fill="white" transform="translate(21.6022 27.2648)"/>
</clipPath>
<clipPath id="clip9_1_59">
<rect width="12.2255" height="3.04817" fill="white" transform="translate(21.6022 27.2648)"/>
</clipPath>
<clipPath id="clip10_1_59">
<rect width="10.624" height="10.6239" fill="white" transform="translate(7.53178 19.6891)"/>
</clipPath>
<clipPath id="clip11_1_59">
<rect width="10.624" height="10.6239" fill="white" transform="translate(7.53178 19.6891)"/>
</clipPath>
</defs>
</svg>
