<svg width="43" height="37" viewBox="0 0 43 37" fill="none" xmlns="http://www.w3.org/2000/svg">
    <g clip-path="url(#clip0_194_25681)">
        <path
            d="M10.6526 3.46182C17.6357 4.12414 20.6113 8.12988 21.4466 10.2243C21.9883 11.582 22.1918 12.387 22.1918 14.1621C22.1918 14.5089 22.2141 15.0435 21.6582 15.1029C21.2684 15.1449 21.0462 14.8868 21.0138 14.6011C20.8675 13.3163 20.4271 11.8121 18.9848 10.4191C17.8442 9.31781 15.2022 7.10669 10.5549 7.43827C9.20374 7.53507 7.99738 6.64519 7.9584 5.50057C7.91688 4.28377 9.2164 3.32553 10.6526 3.46182Z"
            fill="black" />
        <path
            d="M32.555 33.3786C25.572 32.7159 22.5968 28.7106 21.761 26.6158C21.2193 25.258 21.0158 24.453 21.0158 22.6779C21.0158 22.3311 20.9935 21.7966 21.5494 21.7371C21.9392 21.6951 22.1614 21.9532 22.1938 22.2389C22.3401 23.5237 22.7806 25.0279 24.2228 26.4209C25.3634 27.5222 28.0054 29.7333 32.6527 29.4017C34.0039 29.3049 35.2102 30.1948 35.2492 31.3394C35.2907 32.5567 33.9912 33.5149 32.555 33.3786Z"
            fill="black" />
        <path
            d="M3.76774 27.605C4.55748 21.7486 9.33384 19.253 11.8311 18.5525C13.4501 18.0982 14.4099 17.9275 16.527 17.9275C16.9406 17.9275 17.5779 17.9084 17.6488 18.375C17.6984 18.7019 17.3911 18.8883 17.0504 18.9155C15.5186 19.0377 13.725 19.4075 12.0645 20.6171C10.7513 21.5741 8.11482 23.7899 8.51019 27.6869C8.62561 28.8201 7.56454 29.8318 6.19972 29.8645C4.74782 29.8989 3.60524 28.8095 3.76774 27.605Z"
            fill="black" />
        <path
            d="M39.4399 9.23587C38.6502 15.0923 33.8738 17.5879 31.3765 18.2884C29.7576 18.7427 28.7977 18.9133 26.6806 18.9133C26.267 18.9133 25.6297 18.9324 25.5588 18.4659C25.5092 18.1389 25.8165 17.9526 26.1572 17.9254C27.6891 17.8031 29.4827 17.4333 31.1431 16.2237C32.4563 15.2668 35.0928 13.051 34.6974 9.15393C34.582 8.02077 35.6431 7.00904 37.0079 6.97635C38.4598 6.94196 39.6024 8.03139 39.4399 9.23587Z"
            fill="black" />
        <path
            d="M3.20176 10.0583C9.64415 7.70363 14.6088 9.92494 16.5817 11.3884C17.8604 12.3369 18.516 12.9491 19.5745 14.4864C19.7816 14.787 20.1198 15.24 19.6733 15.5249C19.3609 15.7245 19.0141 15.5945 18.8162 15.3606C17.9237 14.309 16.6449 13.1915 14.5658 12.5903C12.921 12.1148 9.31459 11.3077 5.48844 13.5439C4.37572 14.1939 2.80081 13.929 2.08449 12.9542C1.3226 11.917 1.87693 10.5423 3.20176 10.0583Z"
            fill="black" />
        <path
            d="M40.0058 26.7822C33.5634 29.1368 28.5987 26.9155 26.6259 25.452C25.3472 24.5036 24.6916 23.8913 23.6331 22.354C23.426 22.0534 23.0878 21.6004 23.5338 21.3155C23.8467 21.116 24.193 21.2459 24.3914 21.4798C25.2839 22.5315 26.5627 23.6489 28.6418 24.2501C30.2865 24.7256 33.893 25.5327 37.7192 23.297C38.8319 22.6465 40.4068 22.9115 41.1231 23.8862C41.885 24.9235 41.3307 26.2982 40.0058 26.7822Z"
            fill="black" />
        <path
            d="M11.6327 33.8537C8.82506 28.4507 11.4737 24.287 13.2187 22.6325C14.3501 21.5605 15.0796 21.0103 16.9132 20.1225C17.2717 19.9489 17.8118 19.6657 18.151 20.0397C18.3889 20.3017 18.234 20.5925 17.9551 20.7585C16.7011 21.5074 15.3687 22.5794 14.6519 24.3231C14.0849 25.7021 13.1225 28.7267 15.7889 31.9359C16.5639 32.8691 16.2485 34.1904 15.0857 34.7911C13.8495 35.4292 12.2103 34.9648 11.6327 33.8537Z"
            fill="black" />
        <path
            d="M31.5744 2.98715C34.382 8.39013 31.7334 12.5538 29.9884 14.2083C28.8575 15.2808 28.128 15.8306 26.2944 16.7188C25.9359 16.892 25.3958 17.1756 25.0561 16.8016C24.8182 16.5392 24.9736 16.2484 25.2525 16.0824C26.5065 15.3339 27.8389 14.2618 28.5557 12.5177C29.1227 11.1383 30.0851 8.11417 27.4187 4.90448C26.6432 3.97129 26.9591 2.65047 28.1214 2.04972C29.3581 1.4116 30.9973 1.87607 31.5744 2.98715Z"
            fill="black" />
        <path
            d="M0.681203 18.8951C4.85666 14.1544 10.4805 13.9961 13.0618 14.4363C14.7349 14.7216 15.6674 14.9764 17.501 15.8641C17.8594 16.0374 18.4223 16.2883 18.2057 16.7222C18.0543 17.0262 17.6767 17.0589 17.3653 16.9396C15.9656 16.4033 14.1917 15.9715 12.0331 16.3227C10.3251 16.6003 6.72063 17.4138 4.74023 20.9551C4.16413 21.9846 2.64237 22.4156 1.44056 21.8717C0.162308 21.293 -0.176873 19.8699 0.681203 18.8951Z"
            fill="black" />
        <path
            d="M42.5259 17.9458C38.3504 22.686 32.7261 22.8444 30.1458 22.4041C28.4727 22.1188 27.5402 21.8641 25.7066 20.9763C25.3482 20.8031 24.7853 20.5522 25.0014 20.1183C25.1533 19.8143 25.531 19.7816 25.8418 19.9009C27.242 20.4375 29.0154 20.8689 31.1745 20.5178C32.8821 20.2401 36.4865 19.4271 38.4674 15.8858C39.0435 14.8558 40.5652 14.4249 41.7665 14.9687C43.0448 15.5474 43.3845 16.9706 42.5259 17.9458Z"
            fill="black" />
        <path
            d="M22.17 35.9672C16.5174 32.4654 16.3285 27.7489 16.8535 25.5845C17.1942 24.1813 17.4975 23.3993 18.5565 21.8611C18.7636 21.5605 19.0627 21.0888 19.5791 21.2701C19.9416 21.3975 19.9806 21.7138 19.8383 21.9749C19.1989 23.1488 18.6841 24.6365 19.1027 26.4468C19.4338 27.8793 20.4038 30.9017 24.6263 32.563C25.8539 33.0462 26.3678 34.3224 25.7193 35.3303C25.0288 36.4024 23.3324 36.6872 22.17 35.9672Z"
            fill="black" />
        <path
            d="M21.0376 0.874121C26.6903 4.37549 26.8786 9.09195 26.3536 11.2568C26.0134 12.66 25.7102 13.442 24.6516 14.9802C24.4446 15.2804 24.1454 15.7525 23.6285 15.5712C23.2661 15.4438 23.2276 15.1271 23.3698 14.866C24.0092 13.6921 24.5241 12.2048 24.1054 10.3941C23.7738 8.96203 22.8044 5.93957 18.5818 4.27784C17.3537 3.79511 16.8404 2.51845 17.4889 1.51096C18.1784 0.438519 19.8748 0.154063 21.0376 0.874121Z"
            fill="black" />
    </g>
    <defs>
        <clipPath id="clip0_194_25681">
            <rect width="42.7927" height="35.8884" fill="white"
                transform="translate(0.207336 0.47641)" />
        </clipPath>
    </defs>
</svg>