<svg width="141" height="44" viewBox="0 0 141 44" fill="none" xmlns="http://www.w3.org/2000/svg">
<g clip-path="url(#clip0_281_14501)">
<g clip-path="url(#clip1_281_14501)">
<g clip-path="url(#clip2_281_14501)">
<path d="M51.6213 2.04575C51.6213 1.2749 51.1264 0.649994 50.5159 0.649994C49.9054 0.649994 49.4105 1.2749 49.4105 2.04575V41.9624C49.4105 42.7332 49.9054 43.3581 50.5159 43.3581C51.1264 43.3581 51.6213 42.7332 51.6213 41.9624V2.04575Z" fill="white"/>
<g clip-path="url(#clip3_281_14501)">
<g clip-path="url(#clip4_281_14501)">
<g clip-path="url(#clip5_281_14501)">
<g clip-path="url(#clip6_281_14501)">
<path d="M69.9248 24.8352H63.6686V6.43044H57.4124V1.19271H76.181V6.43044H69.9248V24.8352ZM95.3132 24.8352H79.6728V1.19271H94.9495V6.43044H85.929V10.1405H93.6401V15.3782H85.929V19.5975H95.3132V24.8352ZM109.571 25.2717C106.249 25.2717 103.781 24.3066 102.166 22.3764C100.556 20.4511 99.7507 17.4636 99.7507 13.4141V1.19271H106.007V14.1415C106.007 16.2512 106.291 17.7352 106.858 18.5936C107.425 19.4569 108.33 19.8885 109.571 19.8885C110.808 19.8885 111.722 19.4569 112.314 18.5936C112.911 17.7352 113.209 16.2512 113.209 14.1415V1.19271H119.247V13.4141C119.247 17.4636 118.459 20.4511 116.882 22.3764C115.306 24.3066 112.869 25.2717 109.571 25.2717ZM131.461 25.2717C129.957 25.2717 128.413 24.9977 126.827 24.4497C125.236 23.9065 123.798 23.0529 122.513 21.889L126.078 17.597C126.926 18.2759 127.843 18.8264 128.827 19.2483C129.807 19.6751 130.733 19.8885 131.606 19.8885C132.552 19.8885 133.238 19.743 133.665 19.452C134.087 19.161 134.298 18.7488 134.298 18.2153C134.298 17.9243 134.225 17.6818 134.08 17.4879C133.934 17.2939 133.723 17.112 133.447 16.9423C133.165 16.7725 132.831 16.6076 132.443 16.4476C132.055 16.2924 131.606 16.1178 131.097 15.9238L128.151 14.6871C127.52 14.4446 126.914 14.1221 126.332 13.7196C125.75 13.3219 125.241 12.8491 124.805 12.3011C124.368 11.7579 124.024 11.1347 123.772 10.4315C123.514 9.72826 123.386 8.9523 123.386 8.1036C123.386 7.08515 123.604 6.13218 124.041 5.24467C124.477 4.36202 125.083 3.58606 125.859 2.91679C126.635 2.25238 127.564 1.72618 128.646 1.3382C129.722 0.950223 130.903 0.756233 132.188 0.756233C133.546 0.756233 134.924 1.01084 136.32 1.52007C137.712 2.02929 138.954 2.8295 140.045 3.92069L136.917 7.84899C136.117 7.29127 135.348 6.86691 134.611 6.57593C133.869 6.28494 133.061 6.13945 132.188 6.13945C131.412 6.13945 130.806 6.27282 130.37 6.53956C129.933 6.80629 129.715 7.2064 129.715 7.73987C129.715 8.29759 130.025 8.72679 130.646 9.02748C131.262 9.33301 132.116 9.69189 133.207 10.1041L136.08 11.2317C137.559 11.8137 138.699 12.626 139.499 13.6687C140.299 14.7114 140.7 16.0572 140.7 17.7061C140.7 18.7003 140.493 19.6581 140.081 20.5796C139.669 21.501 139.07 22.3061 138.284 22.9947C137.494 23.6883 136.529 24.2411 135.389 24.6534C134.249 25.0656 132.94 25.2717 131.461 25.2717Z" fill="white"/>
</g>
</g>
<g clip-path="url(#clip7_281_14501)">
<g clip-path="url(#clip8_281_14501)">
<path d="M63.7311 35.6578C63.7224 37.1205 63.3177 38.2522 62.5171 39.0528C61.7148 39.8551 60.6085 40.2563 59.1983 40.2563H57.4114V31.0592H59.1983C60.6085 31.0592 61.7148 31.4595 62.5171 32.2601C63.3177 33.0624 63.7224 34.195 63.7311 35.6578ZM58.6465 39.1001H59.356C60.3282 39.1001 61.0754 38.7777 61.5974 38.1331C62.1177 37.4902 62.3866 36.6651 62.4041 35.6578C62.3866 34.6505 62.1177 33.8245 61.5974 33.1798C61.0754 32.5369 60.3282 32.2154 59.356 32.2154H58.6465V39.1001ZM68.3954 33.8183C69.8844 33.8797 70.6289 34.4972 70.6289 35.6709C70.6289 37.1337 69.6698 37.8651 67.7516 37.8651H67.2129V36.8534H67.8435C68.4304 36.8534 68.8377 36.7632 69.0654 36.5827C69.2932 36.404 69.407 36.1045 69.407 35.684C69.407 35.4125 69.3063 35.2084 69.1049 35.0718C68.9034 34.9369 68.645 34.8694 68.3297 34.8694C67.7078 34.8694 67.219 35.0884 66.8634 35.5264C66.5095 35.9643 66.3326 36.4899 66.3326 37.103C66.3326 37.7512 66.5227 38.2767 66.9028 38.6796C67.2847 39.0826 67.7822 39.284 68.3954 39.284C68.9472 39.284 69.3983 39.1483 69.7487 38.8767L70.537 39.6519C69.9326 40.1424 69.2187 40.3877 68.3954 40.3877C67.3968 40.3877 66.5997 40.0942 66.0041 39.5074C65.4085 38.9205 65.1107 38.1629 65.1107 37.2344C65.1107 36.2008 65.4041 35.3643 65.991 34.7249C66.5779 34.0855 67.3793 33.7833 68.3954 33.8183ZM73.9898 33.9497H76.318V35.0534H73.9898C73.7358 35.0534 73.5168 35.1016 73.3329 35.1979C73.1507 35.2943 73.0596 35.43 73.0596 35.6052C73.0596 35.7103 73.0815 35.804 73.1253 35.8864C73.1691 35.9705 73.219 36.0388 73.2751 36.0913C73.3329 36.1439 73.4205 36.1982 73.5378 36.2542C73.657 36.3121 73.7489 36.3515 73.8138 36.3725C73.8803 36.3953 74.158 36.4855 74.6467 36.6432C75.139 36.8008 75.5034 36.9322 75.7399 37.0373C75.9746 37.1424 76.1559 37.2843 76.2838 37.463C76.4117 37.6434 76.4932 37.8186 76.5282 37.9886C76.5632 38.1602 76.5808 38.3293 76.5808 38.4957C76.5808 39.6694 75.7749 40.2563 74.1632 40.2563H71.8876V39.1526H74.1632C74.9866 39.1526 75.3983 38.9337 75.3983 38.4957C75.3983 38.2855 75.2774 38.1103 75.0357 37.9702C74.7957 37.83 74.5022 37.7118 74.1554 37.6154C73.8103 37.5191 73.4643 37.4069 73.1174 37.2791C72.7723 37.1529 72.4789 36.9471 72.2371 36.6615C71.9971 36.3778 71.8771 36.0256 71.8771 35.6052C71.8771 35.0709 72.083 34.661 72.4946 34.3754C72.9063 34.0916 73.4047 33.9497 73.9898 33.9497ZM79.6 33.9497V40.2563H78.4438V35.0534H77.3665L77.892 33.9497H79.6ZM78.3913 32.6359C78.2774 32.487 78.2205 32.3249 78.2205 32.1497C78.2205 31.9745 78.2774 31.8143 78.3913 31.6689C78.5051 31.5252 78.6803 31.4534 78.9168 31.4534C79.1533 31.4534 79.3285 31.5252 79.4424 31.6689C79.5562 31.8143 79.6132 31.9745 79.6132 32.1497C79.6132 32.3249 79.5562 32.4843 79.4424 32.628C79.3285 32.7734 79.1533 32.8461 78.9168 32.8461C78.6803 32.8461 78.5051 32.776 78.3913 32.6359ZM84.2905 40.2563C83.4321 40.2563 82.6964 39.9672 82.0832 39.3891C81.4701 38.811 81.1635 38.0709 81.1635 37.1687C81.1635 36.2578 81.4727 35.4931 82.0911 34.8747C82.7078 34.258 83.4716 33.9497 84.3825 33.9497H87.4701V40.0723C87.4701 40.4665 87.4202 40.8213 87.3203 41.1366C87.2187 41.4519 87.0759 41.7191 86.892 41.938C86.708 42.157 86.5416 42.3278 86.3927 42.4504C86.2438 42.5731 86.0643 42.7001 85.854 42.8315C85.311 43.1118 84.6497 43.2519 83.8701 43.2519H82.3986V42.1483H83.7518C84.5226 42.1483 85.0701 42.0519 85.3942 41.8592C85.9898 41.5264 86.2876 40.9745 86.2876 40.2037V35.0534H84.3825C83.7606 35.0534 83.2657 35.2461 82.8978 35.6315C82.5299 36.0169 82.346 36.5293 82.346 37.1687C82.346 37.7818 82.537 38.2653 82.9189 38.6192C83.299 38.9748 83.7562 39.1526 84.2905 39.1526C84.8686 39.1526 85.3767 38.995 85.8146 38.6796V39.8621C85.3416 40.1249 84.8336 40.2563 84.2905 40.2563ZM89.1781 40.2563V33.9497H91.4511C92.4234 33.9497 93.1197 34.0943 93.5402 34.3833C93.9168 34.6373 94.155 34.9413 94.2549 35.2951C94.3565 35.6507 94.4073 36.1176 94.4073 36.6957V40.2563H93.2511V36.7088C93.2511 36.5512 93.2467 36.4172 93.238 36.3068C93.2292 36.1982 93.1986 36.058 93.146 35.8864C93.0934 35.7164 93.019 35.5763 92.9226 35.4659C92.8263 35.3573 92.6861 35.261 92.5022 35.1769C92.3183 35.0945 92.0949 35.0534 91.8321 35.0534H90.3343V40.2563H89.1781ZM99.0715 33.8183C100.561 33.8797 101.305 34.4972 101.305 35.6709C101.305 37.1337 100.346 37.8651 98.4277 37.8651H97.8891V36.8534H98.5197C99.1066 36.8534 99.5139 36.7632 99.7416 36.5827C99.9693 36.404 100.083 36.1045 100.083 35.684C100.083 35.4125 99.9825 35.2084 99.781 35.0718C99.5796 34.9369 99.3212 34.8694 99.0058 34.8694C98.3839 34.8694 97.8952 35.0884 97.5396 35.5264C97.1857 35.9643 97.0088 36.4899 97.0088 37.103C97.0088 37.7512 97.1988 38.2767 97.579 38.6796C97.9609 39.0826 98.4584 39.284 99.0715 39.284C99.6234 39.284 100.074 39.1483 100.425 38.8767L101.213 39.6519C100.609 40.1424 99.8949 40.3877 99.0715 40.3877C98.073 40.3877 97.2759 40.0942 96.6803 39.5074C96.0847 38.9205 95.7869 38.1629 95.7869 37.2344C95.7869 36.2008 96.0803 35.3643 96.6672 34.7249C97.254 34.0855 98.0555 33.7833 99.0715 33.8183ZM103.575 40.2563H102.419V36.6694C102.419 35.6621 102.608 34.9658 102.984 34.5804C103.168 34.3877 103.392 34.2432 103.654 34.1468C103.917 34.0505 104.147 33.9935 104.345 33.976C104.542 33.9585 104.811 33.9497 105.152 33.9497H106.308V35.0534H104.916C104.74 35.0534 104.605 35.0578 104.508 35.0665C104.412 35.0753 104.298 35.1059 104.167 35.1585C104.035 35.211 103.921 35.2943 103.825 35.4081C103.659 35.6183 103.575 36.0388 103.575 36.6694V40.2563Z" fill="white"/>
</g>
</g>
</g>
</g>
<g clip-path="url(#clip9_281_14501)">
<g clip-path="url(#clip10_281_14501)">
<path d="M11.4999 4.29129C18.4346 5.07554 21.3896 9.81878 22.2191 12.2987C22.757 13.9065 22.9591 14.8596 22.9591 16.9615C22.9591 17.3723 22.9812 18.0052 22.4292 18.0756C22.0421 18.1253 21.8214 17.8197 21.7892 17.4813C21.644 15.9601 21.2066 14.1789 19.7743 12.5295C18.6417 11.2254 16.0179 8.6072 11.4029 8.99983C10.0611 9.11445 8.86313 8.06074 8.82442 6.70539C8.78319 5.26457 10.0737 4.12991 11.4999 4.29129Z" fill="#E77917"/>
<path d="M33.2504 39.716C26.3158 38.9312 23.3613 34.1885 22.5313 31.708C21.9934 30.1003 21.7913 29.1471 21.7913 27.0452C21.7913 26.6345 21.7691 26.0016 22.3211 25.9312C22.7082 25.8814 22.9289 26.1871 22.9611 26.5254C23.1064 28.0467 23.5438 29.8278 24.976 31.4773C26.1087 32.7813 28.7324 35.3996 33.3475 35.0069C34.6892 34.8923 35.8872 35.946 35.9259 37.3014C35.9672 38.7427 34.6767 39.8773 33.2504 39.716Z" fill="#E77917"/>
<path d="M4.66284 32.8794C5.44709 25.9448 10.1903 22.9897 12.6703 22.1602C14.278 21.6223 15.2312 21.4202 17.3336 21.4202C17.7443 21.4202 18.3772 21.3976 18.4476 21.9501C18.4969 22.3372 18.1917 22.5579 17.8534 22.5901C16.3321 22.7349 14.551 23.1727 12.902 24.605C11.598 25.7381 8.97976 28.3619 9.37239 32.9764C9.48701 34.3182 8.4333 35.5162 7.07794 35.5549C5.63612 35.5956 4.50146 34.3056 4.66284 32.8794Z" fill="#E77917"/>
<path d="M40.0875 11.1284C39.3033 18.063 34.56 21.018 32.0801 21.8475C30.4724 22.3854 29.5192 22.5875 27.4168 22.5875C27.0061 22.5875 26.3731 22.6102 26.3027 22.0577C26.2535 21.6706 26.5586 21.4499 26.897 21.4177C28.4182 21.2729 30.1994 20.835 31.8483 19.4028C33.1524 18.2696 35.7706 15.6459 35.378 11.0314C35.2633 9.68958 36.3171 8.49158 37.6724 8.45287C39.1142 8.41215 40.2489 9.70214 40.0875 11.1284Z" fill="#E77917"/>
<path d="M4.10079 12.1022C10.4985 9.31403 15.4287 11.9443 17.3879 13.6772C18.6578 14.8003 19.3088 15.5252 20.36 17.3456C20.5656 17.7015 20.9014 18.2379 20.458 18.5753C20.1478 18.8116 19.8035 18.6577 19.6069 18.3807C18.7206 17.1355 17.4507 15.8123 15.386 15.1004C13.7527 14.5374 10.1712 13.5817 6.37161 16.2296C5.26661 16.9992 3.70263 16.6855 2.99127 15.5313C2.23467 14.3031 2.78515 12.6753 4.10079 12.1022Z" fill="#E77917"/>
<path d="M40.6496 31.9051C34.2519 34.6932 29.3216 32.0629 27.3625 30.33C26.0926 29.2069 25.4416 28.482 24.3904 26.6616C24.1847 26.3057 23.8489 25.7693 24.2918 25.432C24.6025 25.1957 24.9464 25.3495 25.1434 25.6265C26.0298 26.8718 27.2996 28.195 29.3643 28.9068C30.9977 29.4699 34.5791 30.4256 38.3787 27.7782C39.4837 27.008 41.0477 27.3217 41.7591 28.476C42.5157 29.7041 41.9652 31.332 40.6496 31.9051Z" fill="#E77917"/>
<path d="M12.4732 40.2785C9.68507 33.8808 12.3153 28.9506 14.0482 26.9914C15.1718 25.722 15.8963 25.0705 17.7171 24.0193C18.0731 23.8137 18.6095 23.4784 18.9463 23.9213C19.1826 24.2315 19.0288 24.5758 18.7518 24.7724C17.5065 25.6592 16.1833 26.9286 15.4715 28.9933C14.9084 30.6262 13.9527 34.2076 16.6006 38.0077C17.3703 39.1127 17.0571 40.6772 15.9023 41.3885C14.6746 42.1441 13.0468 41.5942 12.4732 40.2785Z" fill="#E77917"/>
<path d="M32.2766 3.72923C35.0648 10.1269 32.4345 15.0572 30.7016 17.0163C29.5785 18.2862 28.8541 18.9372 27.0332 19.9889C26.6773 20.1941 26.1408 20.5299 25.8035 20.087C25.5672 19.7763 25.7216 19.4319 25.9986 19.2354C27.2438 18.349 28.567 17.0797 29.2789 15.0145C29.8419 13.3811 30.7976 9.80017 28.1497 5.99955C27.3796 4.89456 27.6933 3.33057 28.8475 2.61921C30.0757 1.86361 31.7035 2.4136 32.2766 3.72923Z" fill="#E77917"/>
<path d="M1.59772 22.5659C5.74421 16.9525 11.329 16.7649 13.8924 17.2863C15.5539 17.6241 16.48 17.9257 18.3008 18.9769C18.6568 19.1821 19.2158 19.4792 19.0006 19.993C18.8503 20.3529 18.4753 20.3916 18.1661 20.2504C16.7761 19.6154 15.0145 19.1041 12.8709 19.5199C11.1747 19.8487 7.59525 20.8119 5.62858 25.0052C5.05648 26.2243 3.54528 26.7345 2.35181 26.0905C1.08242 25.4053 0.745592 23.7202 1.59772 22.5659Z" fill="#E77917"/>
<path d="M43.1521 21.4418C39.0057 27.0548 33.4203 27.2423 30.8579 26.721C29.1964 26.3831 28.2704 26.0815 26.4495 25.0303C26.0936 24.8252 25.5346 24.5281 25.7492 24.0143C25.9001 23.6543 26.2751 23.6156 26.5838 23.7569C27.9743 24.3923 29.7354 24.9031 31.8795 24.4873C33.5752 24.1586 37.1546 23.1958 39.1218 19.0026C39.6939 17.783 41.2051 17.2727 42.3981 17.9167C43.6674 18.6019 44.0048 20.2871 43.1521 21.4418Z" fill="#E77917"/>
<path d="M22.9375 42.7811C17.324 38.6346 17.1365 33.0498 17.6578 30.4869C17.9962 28.8254 18.2973 27.8994 19.349 26.078C19.5546 25.7221 19.8517 25.1635 20.3645 25.3782C20.7245 25.529 20.7632 25.9035 20.6219 26.2127C19.987 27.6028 19.4757 29.3643 19.8915 31.5079C20.2202 33.2041 21.1835 36.7831 25.3767 38.7502C26.5958 39.3223 27.1061 40.8335 26.4621 42.027C25.7764 43.2964 24.0917 43.6337 22.9375 42.7811Z" fill="#E77917"/>
<path d="M21.8129 1.22717C27.4264 5.37316 27.6134 10.958 27.092 13.5214C26.7542 15.1829 26.4531 16.1089 25.4019 17.9303C25.1963 18.2857 24.8991 18.8447 24.3859 18.6301C24.0259 18.4793 23.9877 18.1042 24.129 17.795C24.7639 16.405 25.2752 14.6439 24.8594 12.4998C24.5301 10.8041 23.5674 7.2252 19.3742 5.25753C18.1546 4.68593 17.6448 3.17423 18.2888 1.98126C18.9735 0.711367 20.6581 0.37454 21.8129 1.22717Z" fill="#E77917"/>
</g>
</g>
</g>
</g>
</g>
<defs>
<clipPath id="clip0_281_14501">
<rect width="140" height="42.7" fill="white" transform="translate(0.915161 0.654068)"/>
</clipPath>
<clipPath id="clip1_281_14501">
<rect width="139.576" height="42.7081" fill="white" transform="translate(1.12714 0.649994)"/>
</clipPath>
<clipPath id="clip2_281_14501">
<rect width="139.576" height="42.7081" fill="white" transform="translate(1.12714 0.649994)"/>
</clipPath>
<clipPath id="clip3_281_14501">
<rect width="83.2944" height="42.4957" fill="white" transform="translate(57.4088 0.756233)"/>
</clipPath>
<clipPath id="clip4_281_14501">
<rect width="83.2944" height="42.4957" fill="white" transform="translate(57.4088 0.756233)"/>
</clipPath>
<clipPath id="clip5_281_14501">
<rect width="83.2944" height="24.5155" fill="white" transform="translate(57.4088 0.756233)"/>
</clipPath>
<clipPath id="clip6_281_14501">
<rect width="83.2944" height="24.5155" fill="white" transform="translate(57.4088 0.756233)"/>
</clipPath>
<clipPath id="clip7_281_14501">
<rect width="48.9021" height="12.1927" fill="white" transform="translate(57.4088 31.0592)"/>
</clipPath>
<clipPath id="clip8_281_14501">
<rect width="48.9021" height="12.1927" fill="white" transform="translate(57.4088 31.0592)"/>
</clipPath>
<clipPath id="clip9_281_14501">
<rect width="42.4958" height="42.4957" fill="white" transform="translate(1.12714 0.756233)"/>
</clipPath>
<clipPath id="clip10_281_14501">
<rect width="42.4958" height="42.4957" fill="white" transform="translate(1.12714 0.756233)"/>
</clipPath>
</defs>
</svg>
